<svg xmlns="http://www.w3.org/2000/svg" width="256" height="256" viewBox="0 0 100 100"><rect width="100" height="100" rx="50" fill="#7d6ee7"></rect><path fill="#fff" d="M9.54 43.25L9.54 43.25Q11.43 43.25 12.80 43.73L12.80 43.73L12.80 36.60Q13.28 36.47 14.18 36.34Q15.09 36.21 16.14 36.21L16.14 36.21Q18.34 36.21 19.31 36.93Q20.28 37.66 20.28 39.73L20.28 39.73L20.28 60.58Q20.28 62.65 18.34 63.88L18.34 63.88Q17.07 64.72 15.06 65.36Q13.06 65.99 10.42 65.99L10.42 65.99Q4.66 65.99 1.45 63.16Q-1.77 60.32-1.77 54.69L-1.77 54.69Q-1.77 51.78-0.89 49.63Q-0.01 47.47 1.51 46.06Q3.03 44.65 5.10 43.95Q7.17 43.25 9.54 43.25ZM12.84 59.53L12.84 49.58Q12.36 49.36 11.79 49.23Q11.21 49.10 10.60 49.10L10.60 49.10Q8.31 49.10 7.06 50.48Q5.80 51.87 5.80 54.69L5.80 54.69Q5.80 57.46 6.99 58.78Q8.18 60.10 10.38 60.10L10.38 60.10Q11.17 60.10 11.83 59.92Q12.49 59.75 12.84 59.53L12.84 59.53ZM32.42 50.20L32.42 65.25Q31.94 65.38 31.04 65.51Q30.13 65.64 29.08 65.64L29.08 65.64Q26.88 65.64 25.91 64.92Q24.94 64.19 24.94 62.12L24.94 62.12L24.94 49.05Q24.94 47.78 25.60 46.83Q26.26 45.89 27.41 45.18L27.41 45.18Q28.95 44.26 30.99 43.77Q33.04 43.29 35.28 43.29L35.28 43.29Q40.08 43.29 40.08 46.68L40.08 46.68Q40.08 47.47 39.86 48.15Q39.64 48.83 39.33 49.32L39.33 49.32Q38.49 49.14 36.91 49.14L36.91 49.14Q35.77 49.14 34.56 49.41Q33.35 49.67 32.42 50.20L32.42 50.20ZM43.03 56.80L43.03 43.99Q43.51 43.86 44.41 43.73Q45.31 43.60 46.37 43.60L46.37 43.60Q48.57 43.60 49.54 44.32Q50.51 45.05 50.51 47.12L50.51 47.12L50.51 56.80Q50.51 58.60 51.39 59.37Q52.27 60.14 53.94 60.14L53.94 60.14Q54.95 60.14 55.59 59.97Q56.23 59.79 56.58 59.61L56.58 59.61L56.58 43.99Q57.06 43.86 57.96 43.73Q58.87 43.60 59.92 43.60L59.92 43.60Q62.12 43.60 63.09 44.32Q64.06 45.05 64.06 47.12L64.06 47.12L64.06 60.71Q64.06 62.91 62.21 64.01L62.21 64.01Q60.67 64.98 58.54 65.49Q56.40 65.99 53.89 65.99L53.89 65.99Q51.52 65.99 49.52 65.47Q47.51 64.94 46.06 63.84Q44.61 62.74 43.82 61.00Q43.03 59.26 43.03 56.80L43.03 56.80ZM68.81 62.12L68.81 44.21Q69.29 44.08 70.20 43.95Q71.10 43.82 72.15 43.82L72.15 43.82Q74.35 43.82 75.32 44.54Q76.29 45.27 76.29 47.34L76.29 47.34L76.29 65.25Q75.81 65.38 74.90 65.51Q74.00 65.64 72.95 65.64L72.95 65.64Q70.75 65.64 69.78 64.92Q68.81 64.19 68.81 62.12L68.81 62.12ZM68.46 37.97L68.46 37.97Q68.46 36.29 69.58 35.15Q70.70 34.01 72.55 34.01L72.55 34.01Q74.40 34.01 75.52 35.15Q76.64 36.29 76.64 37.97L76.64 37.97Q76.64 39.64 75.52 40.78Q74.40 41.93 72.55 41.93L72.55 41.93Q70.70 41.93 69.58 40.78Q68.46 39.64 68.46 37.97ZM81.79 62.08L81.79 62.08Q81.79 61.15 82.21 60.30Q82.63 59.44 83.20 59.00L83.20 59.00Q84.39 59.53 85.68 59.81Q86.98 60.10 88.08 60.10L88.08 60.10Q90.94 60.10 92.61 58.62Q94.29 57.15 94.29 54.69L94.29 54.69L94.29 54.60Q93.41 55.30 92.06 55.70Q90.72 56.09 89.18 56.09L89.18 56.09Q87.20 56.09 85.55 55.54Q83.90 54.99 82.69 53.89Q81.48 52.79 80.82 51.14Q80.16 49.49 80.16 47.34L80.16 47.34Q80.16 45.45 80.82 43.73Q81.48 42.01 82.80 40.72Q84.12 39.42 86.08 38.65Q88.04 37.88 90.63 37.88L90.63 37.88Q95.83 37.88 98.80 41.35Q101.77 44.83 101.77 51.25L101.77 51.25Q101.77 54.91 100.86 57.68Q99.96 60.45 98.31 62.30Q96.66 64.15 94.37 65.07Q92.09 65.99 89.31 65.99L89.31 65.99Q85.79 65.99 83.79 65.03Q81.79 64.06 81.79 62.08ZM90.90 50.46L90.90 50.46Q91.73 50.46 92.59 50.11Q93.45 49.76 94.02 49.14L94.02 49.14L94.02 48.57Q94.02 43.82 90.59 43.82L90.59 43.82Q89.14 43.82 88.37 44.72Q87.60 45.62 87.60 47.16L87.60 47.16Q87.60 48.70 88.54 49.58Q89.49 50.46 90.90 50.46Z"></path></svg>